<svg viewBox="-8 -22 81 81" width="65" height="65" preserveAspectRatio="xMidYMid" fill="none" xmlns="http://www.w3.org/2000/svg" style="background-color: #efefef;"><path d="m6.676 3.01-.563 2.894h3.961l-.182.926h-3.96L5.316 10H4.197l1.535-7.904h5.221l-.176.914H6.676Zm9.65 6.99-.375-2.238h-3.299L11.416 10h-1.149l4.524-7.904h1.271l1.4 7.904h-1.136Zm-1.078-7.06c-.18.355-.342.67-.486.943-.141.273-.688 1.275-1.641 3.006h2.713l-.445-2.93-.141-1.02Zm5.777 7.177c-1.785 0-2.685-.699-2.7-2.097l1.124-.217c.008.496.16.861.457 1.095.297.23.736.346 1.319.346.62 0 1.115-.119 1.482-.357.371-.242.6-.588.685-1.037l.03-.264a.82.82 0 0 0-.182-.545 1.348 1.348 0 0 0-.492-.363c-.211-.102-.621-.23-1.23-.387-.567-.156-.958-.287-1.172-.393a2.022 2.022 0 0 1-.522-.351 1.393 1.393 0 0 1-.299-.44 1.507 1.507 0 0 1-.1-.568c0-.336.071-.668.212-.996.14-.332.35-.617.627-.856a2.755 2.755 0 0 1 1.025-.533 4.668 4.668 0 0 1 1.348-.181c.835 0 1.443.146 1.822.44.379.292.586.778.621 1.458l-1.137.193c-.008-.433-.13-.75-.369-.949-.238-.199-.607-.299-1.107-.299-1.098 0-1.73.416-1.899 1.248l-.023.24a.72.72 0 0 0 .135.452c.093.117.218.217.375.299.156.078.337.146.544.205.207.054.426.113.657.176.695.187 1.175.355 1.441.503.27.149.48.334.633.557.152.219.229.498.229.838 0 .375-.08.742-.24 1.102-.16.355-.393.658-.698.908-.3.246-.668.437-1.102.574-.433.133-.931.2-1.494.2Zm9.17-7.107L28.835 10h-1.113l1.36-6.99h-2.596l.176-.914h6.305l-.176.914h-2.596ZM6.915 20l.99-5.086c.098-.492.223-1.08.375-1.764l-.322.633-.562 1.072-1.46 2.567h-.802l-.475-2.567c-.058-.285-.136-.853-.234-1.705l-.317 1.764L3.118 20h-.937l1.535-7.904h1.389l.527 2.865c.047.223.092.674.135 1.353l.252-.527.421-.82 1.641-2.871H9.4L7.864 20h-.949Zm5.285.117c-.789 0-1.379-.226-1.77-.68-.39-.457-.585-1.109-.585-1.957 0-.625.095-1.31.287-2.056.195-.746.463-1.377.803-1.893.343-.52.753-.908 1.23-1.166.477-.261 1.02-.392 1.629-.392.773 0 1.361.216 1.764.65.402.43.603 1.076.603 1.94 0 .605-.096 1.28-.287 2.027-.191.746-.463 1.387-.814 1.922-.352.531-.77.931-1.254 1.2-.485.27-1.02.405-1.606.405Zm2.778-5.467c0-1.175-.454-1.763-1.36-1.763-.531 0-.984.195-1.36.586-.37.386-.67.974-.896 1.763-.222.79-.334 1.506-.334 2.15 0 1.216.452 1.823 1.354 1.823.39 0 .734-.102 1.031-.305.297-.203.559-.523.785-.96.23-.438.418-.98.563-1.624.144-.648.217-1.205.217-1.67ZM18.956 20h-2.168l1.535-7.904h1.823c2.128 0 3.193.896 3.193 2.69 0 .616-.105 1.27-.316 1.962-.211.691-.508 1.281-.891 1.77a3.834 3.834 0 0 1-1.377 1.107c-.535.25-1.135.375-1.799.375Zm3.246-5.068c0-.676-.185-1.164-.556-1.465-.368-.305-.924-.457-1.67-.457h-.71l-1.183 6.076h.95c.5 0 .939-.094 1.318-.281.383-.192.709-.479.978-.862.27-.383.483-.863.639-1.441a6.073 6.073 0 0 0 .234-1.57Zm4.365 5.185c-.785 0-1.359-.15-1.722-.451-.36-.305-.54-.781-.54-1.43 0-.3.038-.634.112-1.002l.996-5.138h1.12l-.968 4.986c-.078.398-.117.73-.117.996 0 .399.098.688.293.867.2.176.532.264.996.264.63 0 1.1-.16 1.413-.48.316-.32.556-.895.72-1.723l.955-4.91h1.114l-.979 5.033c-.203 1.039-.572 1.797-1.107 2.273-.536.477-1.297.715-2.286.715ZM31.642 20l1.535-7.904h1.119l-1.36 6.99h3.938l-.176.914h-5.056Zm6.767 0 1.535-7.904h5.385l-.176.914h-4.265l-.48 2.472h3.913l-.175.903H40.23l-.527 2.7h4.506l-.176.915H38.41ZM2.906 30.117c-.785 0-1.36-.15-1.722-.451-.36-.305-.54-.781-.54-1.43 0-.3.038-.634.112-1.002l.996-5.138h1.12l-.968 4.986c-.078.398-.117.73-.117.996 0 .399.098.688.293.867.2.176.531.264.996.264.63 0 1.1-.16 1.412-.48.317-.32.557-.895.721-1.723l.955-4.91h1.113L6.3 27.129c-.203 1.039-.572 1.797-1.108 2.273-.535.477-1.296.715-2.285.715Zm9.2-7.107L10.745 30H9.633l1.36-6.99H8.395l.176-.914h6.305l-.176.914h-2.596Zm4.412-.914h4.822l-.176.914h-1.852l-1.183 6.076h1.851l-.175.914h-4.823l.176-.914h1.852l1.183-6.076h-1.851l.176-.914ZM22.395 30l1.535-7.904h1.119l-1.36 6.99h3.938l-.176.914h-5.056Zm8.537-7.904h4.822l-.176.914h-1.851l-1.184 6.076h1.852l-.176.914h-4.823l.176-.914h1.852l1.183-6.076h-1.851l.176-.914Zm10.002.914L39.574 30h-1.113l1.36-6.99h-2.596l.175-.914h6.305l-.176.914h-2.595Zm4.412-.914h4.822l-.176.914h-1.851l-1.184 6.076h1.852l-.176.914H43.81l.176-.914h1.852l1.184-6.076H45.17l.176-.914ZM50.783 30l1.535-7.904h5.385l-.176.914h-4.265l-.48 2.472h3.913l-.175.903h-3.915l-.527 2.7h4.506l-.176.915h-5.625Zm9.809.117c-1.785 0-2.686-.699-2.701-2.098l1.125-.216c.007.496.16.861.457 1.095.297.23.736.346 1.318.346.621 0 1.115-.119 1.482-.357.371-.242.6-.588.686-1.037l.03-.264a.82.82 0 0 0-.182-.545 1.349 1.349 0 0 0-.492-.363c-.212-.102-.622-.23-1.231-.387-.566-.156-.957-.287-1.172-.393a2.022 2.022 0 0 1-.521-.351 1.392 1.392 0 0 1-.3-.44 1.506 1.506 0 0 1-.099-.568c0-.336.07-.668.211-.996.14-.332.35-.617.627-.855a2.753 2.753 0 0 1 1.026-.534 4.667 4.667 0 0 1 1.347-.181c.836 0 1.444.146 1.822.44.38.292.586.778.621 1.458l-1.136.194c-.008-.434-.131-.75-.37-.95-.238-.199-.607-.299-1.107-.299-1.098 0-1.73.416-1.898 1.248l-.024.24a.72.72 0 0 0 .135.452c.094.117.219.217.375.299.156.078.338.146.545.205.207.054.426.113.656.175.696.188 1.176.356 1.442.505.27.148.48.333.633.556.152.219.228.498.228.838 0 .375-.08.742-.24 1.102-.16.355-.393.658-.697.908-.301.246-.669.437-1.102.574-.434.133-.932.2-1.494.2Z" fill="#000"/></svg>