<svg width="128" height="128" xmlns="http://www.w3.org/2000/svg"><path fill="#efefef" d="M0 0h128v128H0z"/><g stroke="null"><path fill="#ff3e00" d="M99.064 28.484c-8.97-12.837-26.684-16.642-39.492-8.482L37.077 34.34a25.807 25.807 0 0 0-11.659 17.286 27.178 27.178 0 0 0 2.68 17.448 25.878 25.878 0 0 0-3.86 9.645 27.502 27.502 0 0 0 4.698 20.798c8.97 12.838 26.685 16.642 39.492 8.482L90.922 93.66a25.802 25.802 0 0 0 11.66-17.286 27.19 27.19 0 0 0-2.679-17.449 25.873 25.873 0 0 0 3.859-9.644 27.494 27.494 0 0 0-4.698-20.798"/><path fill="#fff" d="M57.374 100.724a17.868 17.868 0 0 1-19.178-7.109 16.536 16.536 0 0 1-2.826-12.507 15.686 15.686 0 0 1 .538-2.101l.423-1.292 1.153.847a29.016 29.016 0 0 0 8.8 4.396l.835.254-.077.834a5.043 5.043 0 0 0 .907 3.345 5.38 5.38 0 0 0 5.775 2.143 4.955 4.955 0 0 0 1.381-.607L77.601 74.59a4.684 4.684 0 0 0 2.113-3.131 4.998 4.998 0 0 0-.852-3.77 5.385 5.385 0 0 0-5.776-2.144 4.953 4.953 0 0 0-1.38.607l-8.584 5.472a16.415 16.415 0 0 1-4.568 2.006 17.868 17.868 0 0 1-19.178-7.11 16.535 16.535 0 0 1-2.825-12.507 15.514 15.514 0 0 1 7.011-10.393l22.493-14.336a16.39 16.39 0 0 1 4.571-2.009 17.868 17.868 0 0 1 19.178 7.109 16.536 16.536 0 0 1 2.826 12.507 15.869 15.869 0 0 1-.538 2.101l-.423 1.292-1.152-.845a28.993 28.993 0 0 0-8.8-4.399l-.836-.253.077-.835a5.053 5.053 0 0 0-.908-3.344 5.38 5.38 0 0 0-5.774-2.144 4.955 4.955 0 0 0-1.381.608L50.399 53.408a4.676 4.676 0 0 0-2.111 3.131 4.99 4.99 0 0 0 .85 3.77 5.385 5.385 0 0 0 5.776 2.145 4.972 4.972 0 0 0 1.382-.607l8.582-5.47a16.367 16.367 0 0 1 4.568-2.008 17.868 17.868 0 0 1 19.178 7.109 16.535 16.535 0 0 1 2.825 12.507 15.522 15.522 0 0 1-7.011 10.395L61.945 98.715a16.39 16.39 0 0 1-4.571 2.009"/></g></svg>