<svg width="128" height="128" xmlns="http://www.w3.org/2000/svg"><path fill="#efefef" opacity=".999" stroke-linecap="round" stroke-width="1.016" d="M0 0h128v128H0z"/><path d="M104.67 37.851v63.905c0 4.808-3.9 8.719-8.719 8.719H32.047c-4.808 0-8.719-3.901-8.719-8.719V37.851c0-4.808 3.901-8.719 8.72-8.719h8.718v-9.444c0-1.21.978-2.178 2.177-2.178H50.2c1.21 0 2.178.978 2.178 2.178v9.444H75.62v-9.444c0-1.21.977-2.178 2.177-2.178h7.257c1.21 0 2.177.978 2.177 2.178v9.444h8.72c4.807 0 8.718 3.901 8.718 8.719zm-8.719 62.836V46.56H32.047v54.127c0 .605.504 1.089 1.089 1.089h61.727c.605 0 1.088-.504 1.088-1.089z" fill="#207dff" stroke-width="10.08"/><g stroke="#207dff" stroke-linejoin="round"><g stroke-linecap="round"><path d="M51.748 62.165l4.183 4.183-4.183 4.184" stroke-width="5.04"/><g stroke-width="6.048"><path d="M73.661 63.496v5.846"/><path d="M69.952 80.027a5.947 5.947 0 01-8.93 5.15 5.947 5.947 0 01-2.974-5.15" fill-opacity=".005" opacity=".98" paint-order="stroke markers fill"/></g></g><path d="M32.424 101.296c-.222-.222-.282-6.593-.282-27.468V46.662h63.645l-.12 54.805-31.48.06c-24.193.05-31.551-.01-31.753-.221zM67.865 88.15c2.752-1.35 4.577-3.78 5.04-6.733.303-1.774-.01-2.954-.957-3.73-1.008-.846-2.016-1.008-3.206-.463-1.159.574-1.683 1.34-1.965 2.923-.353 1.955-1.371 2.762-3.286 2.6-1.24-.1-2.369-1.461-2.369-2.852 0-1.059-.756-2.157-1.814-2.621-1.633-.726-3.428-.07-4.073 1.462-.433 1.048-.181 3.457.545 5.02.665 1.451 2.157 3.195 3.397 3.96 2.57 1.594 6.017 1.765 8.688.455zM53.068 72.73c.756-.403 4.838-4.506 5.211-5.242.444-.867.303-1.844-.423-2.822-.766-1.038-3.85-4.072-4.738-4.657-1.43-.958-3.598-.05-3.91 1.633-.202 1.089.18 1.935 1.45 3.175.575.565 1.05 1.25 1.05 1.512s-.475.958-1.05 1.512c-1.26 1.24-1.652 2.087-1.45 3.175.302 1.653 2.288 2.52 3.86 1.684zm22.196-.756c1.28-.756 1.411-1.31 1.411-5.564 0-3.65-.03-3.931-.534-4.677-.343-.504-.907-.928-1.512-1.14-.907-.302-1.078-.302-2.086.122-1.835.766-2.016 1.34-1.936 6.078l.07 3.971.878.807c.736.675 1.058.806 1.965.806.605 0 1.381-.171 1.744-.383z" fill="#0f3974" opacity=".98" stroke-width=".534" paint-order="stroke markers fill"/></g></svg>