<svg width="128" height="128" xmlns="http://www.w3.org/2000/svg"><path fill="#efefef" d="M0 0h128v128H0z"/><g stroke="null"><path fill="url(#a)" d="M109.543 31.684 66.47 108.706c-.889 1.59-3.174 1.6-4.076.017L18.467 31.692c-.984-1.725.49-3.814 2.445-3.465l43.119 7.708c.275.049.557.048.832-.002l42.217-7.695c1.948-.354 3.43 1.718 2.463 3.446z"/><path fill="url(#b)" d="m84.571 18.118-31.875 6.246a1.17 1.17 0 0 0-.944 1.08l-1.96 33.115a1.17 1.17 0 0 0 1.431 1.21l8.875-2.048a1.17 1.17 0 0 1 1.41 1.375L58.87 72.007a1.17 1.17 0 0 0 1.487 1.354l5.481-1.665a1.17 1.17 0 0 1 1.487 1.357l-4.19 20.28c-.263 1.269 1.425 1.96 2.128.873l.47-.727 25.974-51.835c.435-.868-.315-1.857-1.268-1.673l-9.135 1.763a1.17 1.17 0 0 1-1.346-1.474L85.92 19.59a1.17 1.17 0 0 0-1.35-1.473z"/></g><defs><linearGradient gradientTransform="matrix(.2341 0 0 .2341 15.99 17.75)" gradientUnits="userSpaceOnUse" y2="344" x2="235" y1="33" x1="6" id="a"><stop stop-color="#41D1FF"/><stop stop-color="#BD34FE" offset="1"/></linearGradient><linearGradient gradientTransform="matrix(.2341 0 0 .2341 15.99 17.75)" gradientUnits="userSpaceOnUse" y2="292.989" x2="236.076" y1="8.818" x1="194.651" id="b"><stop stop-color="#FFEA83"/><stop stop-color="#FFDD35" offset=".083"/><stop stop-color="#FFA800" offset="1"/></linearGradient></defs></svg>