<svg xmlns="http://www.w3.org/2000/svg" width="32" height="32" viewBox="0 0 8.467 8.467"><path d="M4.233.265c-.29 0-.578.11-.8.332L.596 3.435a1.13 1.13 0 0 0 0 1.598L3.434 7.87a1.13 1.13 0 0 0 1.598 0L7.87 5.033a1.13 1.13 0 0 0 0-1.598L5.032.597c-.22-.22-.5-.332-.8-.332zm0 1.323a.75.75 0 0 1 .532.221L6.658 3.7a.75.75 0 0 1 0 1.065L4.766 6.658a.75.75 0 0 1-1.065 0L1.81 4.766a.75.75 0 0 1 0-1.065L3.7 1.81a.75.75 0 0 1 .532-.221zm0 1.323c-.096 0-.192.037-.266.11l-.946.946c-.148.148-.148.385 0 .532l.946.946c.148.148.385.148.532 0l.946-.946c.148-.148.148-.385 0-.532L4.5 3.02c-.074-.074-.17-.11-.266-.11z" fill="#ff9faf" paint-order="normal"/></svg>