<svg xmlns="http://www.w3.org/2000/svg" width="128" height="128" xmlns:v="https://vecta.io/nano"><style><![CDATA[.F{stroke-linejoin:round}.G{stroke-width:4.111}.H{stroke:azure}.I{stroke-linecap:round}.J{stroke-width:4.897}]]></style><path fill="#4846f6" d="M0 0h128v128H0z"/><g fill="none" class="H"><g class="F"><ellipse cx="37.054" cy="37.138" rx="16.714" ry="16.629" class="G"/><path d="M31.365 42.033v-9.72c0-.825.442-1.587 1.16-2a2.33 2.33 0 0 1 2.32 0l8.46 4.86c.718.412 1.16 1.175 1.16 2s-.442 1.587-1.16 2l-8.46 4.86a2.33 2.33 0 0 1-2.32 0c-.718-.412-1.16-1.175-1.16-2z" stroke-width="4.112"/></g><path d="M35.287 53.703v27.712c0 9.288 5.864 13.48 14.405 13.726m.136-29.54c-8.914 0-14.322-3.148-14.54-11.887" class="G"/></g><g fill="#fff"><ellipse cx="57.716" cy="94.901" rx="1.772" ry="1.763"/><ellipse cx="65.167" cy="94.901" rx="1.772" ry="1.763"/></g><g fill="none"><g class="H F"><path d="M56.827 65.66l2.6 2.753 5.702-5.673m25.384 2.92l2.6 2.753 5.702-5.673" class="G I"/><g class="J"><ellipse cx="61.163" cy="65.741" rx="11.16" ry="11.103"/><ellipse cx="95.176" cy="65.741" rx="11.16" ry="11.103"/><ellipse cx="61.163" cy="95.486" rx="11.16" ry="11.103"/></g></g><ellipse cx="94.968" cy="95.486" rx="11.16" ry="11.103" stroke="#88a4e8" class="F J"/><path d="M72.114 65.46h11.763" class="G H"/><path d="M78.34 95.138h5.222" stroke="#88a4e8" stroke-width="3.681" class="I"/></g><path fill-opacity="0" d="M0 0h128v128H0z"/></svg>