<svg xmlns="http://www.w3.org/2000/svg" width="42" height="42" xmlns:v="https://vecta.io/nano"><style><![CDATA[.D{stroke:#000}.E{stroke-miterlimit:10}.F{stroke-width:.5}]]></style><defs><clipPath id="A"><path d="M0 32h32V0H0z"/></clipPath><clipPath id="B"><path d="M0 32h32V0H0z"/></clipPath><clipPath id="C"><path d="M6.34 29.602h19.322V2.405H6.34z"/></clipPath></defs><g transform="matrix(1.3333 0 0 -1.3333 0 42.667)"><g clip-path="url(#A)"><path d="M10.873 5.104L7.14 2.526c-.448-.3-.902-.005-.785.526l.98 4.43a1.48 1.48 0 0 0 .217.499l12.986 19.3 3.7-2.488-12.986-19.3c-.104-.155-.234-.288-.38-.4" fill="#fff"/><path d="M10.873 5.104L7.14 2.526c-.448-.3-.902-.005-.785.526l.98 4.43a1.48 1.48 0 0 0 .217.499l12.986 19.3 3.7-2.488-12.986-19.3c-.104-.155-.234-.288-.38-.4z" fill="none" class="D E F"/><path d="M10.003 6L8.486 7 21.63 26.557l1.517-1.02z" fill="#fff"/><path d="M10.003 6L8.486 7 21.63 26.557l1.517-1.02z" fill="none" class="D E F"/><path d="M25.22 28.057l-2.04 1.372a1 1 0 0 1-1.388-.272l-1.254-1.865 3.7-2.488 1.253 1.865a1 1 0 0 1-.271 1.388" fill="#fff"/><g fill="none" class="D E F"><path d="M25.22 28.057l-2.04 1.372a1 1 0 0 1-1.388-.272l-1.254-1.865 3.7-2.488 1.253 1.865a1 1 0 0 1-.271 1.388zM7.395 7.745l3.7-2.488m-4.63-1.72c.243.362 1.336-.372 1.092-.734"/></g></g><path d="M0 0h32v32H0z" fill="#9f7aea"/><g clip-path="url(#B)"><g clip-path="url(#C)"><path d="M25.22 28.06a1 1 0 0 0 .271-1.39l-1.25-1.87-1.1.74-2.6 1.75 1.25 1.87a1 1 0 0 0 1.39.27z" fill="#fc8181"/><g fill="#ecc94b"><path d="M24.24 24.8l-13-19.3a1.24 1.24 0 0 0-.18-.22L10 6l13.15 19.55z"/><path d="M23.15 25.54L10 6 8.5 7l13.14 19.55z"/><path d="M21.63 26.56L8.5 7l-1.07.72c.03.1.08.17.13.25l13 19.3z"/></g><path d="M10 6l1.07-.72c-.06-.07-.13-.12-.2-.17l-3.3-2.28c.2.37-.84 1.06-1.1.73l.87 3.93c.01.08.04.17.08.25L8.5 7z" fill="#faf089"/><path d="M6.47 3.55c.26.33 1.3-.36 1.1-.73l-.43-.3c-.45-.3-.9-.01-.78.52z"/></g><g fill="none" class="D E F"><path d="M24.24 24.8l-13-19.3a1.24 1.24 0 0 0-.18-.22c-.06-.07-.13-.12-.2-.17l-3.3-2.28-.43-.3c-.45-.3-.9-.01-.78.52l.1.5.87 3.93a.81.81 0 0 0 .08.25c.03.1.08.17.13.25l13 19.3m2.62-1.76L10 6M8.5 7l13.14 19.55"/><path d="M24.24 24.8l1.25 1.87a1 1 0 0 1-.271 1.39l-2.04 1.37a1 1 0 0 1-1.389-.27l-1.25-1.87 1.1-.73 1.52-1.02zM7.4 7.75l.03-.02L8.5 7 10 6l1.07-.72.02-.01M6.46 3.54l.01.01c.26.33 1.3-.36 1.1-.73 0-.01-.01-.01-.01-.02"/></g></g></g></svg>