<svg xmlns="http://www.w3.org/2000/svg" width="128" height="128"><path fill="#0d5f9c" d="M0 0h128v128H0z"/><path d="M90.53 79.104c0 13.65-11.963 24.693-26.533 24.693S37.464 92.754 37.464 79.104s26.533-54.906 26.533-54.906S90.53 65.454 90.53 79.104z" fill="none" stroke="#fff" stroke-linejoin="round" stroke-width="4.601"/><path d="M63.843 76.65c-13.036-9.662-17.8 0-17.8 0-.153.767-.307 1.38-.307 1.994 0 9.356 8.13 17.024 18.25 17.024S82.248 88 82.248 78.644c0-.613-.153-1.227-.153-1.994 0 0-7.208 8.13-18.25 0z" fill="#fff" fill-rule="evenodd"/></svg>