<svg xmlns="http://www.w3.org/2000/svg" width="128" height="128" preserveAspectRatio="xMidYMid"><defs><linearGradient id="a" x1="-7.111" x2="256.005" y1=".607" y2="152.31" gradientUnits="userSpaceOnUse"><stop stop-color="#2298bd" offset="0"/><stop stop-color="#0ed7b5" offset="1"/></linearGradient></defs><path fill="#fff" d="M0 0h128v128H0z"/><path d="M128 0C93.867 0 72.533 17.067 64 51.2 76.8 34.133 91.733 27.733 108.8 32c9.737 2.434 16.697 9.5 24.4 17.318C145.75 62.056 160.275 76.8 192 76.8c34.133 0 55.467-17.067 64-51.2-12.8 17.067-27.733 23.467-44.8 19.2-9.737-2.434-16.697-9.498-24.4-17.318C174.25 14.744 159.725 0 128 0zM64 76.8C29.867 76.8 8.533 93.867 0 128c12.8-17.067 27.733-23.467 44.8-19.2 9.738 2.434 16.697 9.5 24.4 17.318C81.75 138.856 96.275 153.6 128 153.6c34.133 0 55.467-17.067 64-51.2-12.8 17.067-27.733 23.467-44.8 19.2-9.737-2.434-16.697-9.5-24.4-17.318C110.25 91.544 95.725 76.8 64 76.8z" fill="url(#a)" transform="matrix(.32 0 0 .32 23.04 39.424)"/></svg>