<svg xmlns="http://www.w3.org/2000/svg" width="107" height="128"><path d="M94.157 22.819c-10.4-14.885-30.94-19.297-45.792-9.835L22.282 29.608A29.923 29.923 0 0 0 8.764 49.65a31.514 31.514 0 0 0 3.108 20.231 30.006 30.006 0 0 0-4.477 11.183 31.889 31.889 0 0 0 5.448 24.116c10.402 14.886 30.942 19.297 45.791 9.835l26.083-16.624A29.918 29.918 0 0 0 98.235 78.35a31.526 31.526 0 0 0-3.105-20.232 30 30 0 0 0 4.474-11.182 31.88 31.88 0 0 0-5.447-24.116" style="fill:#ff3e00"/><path d="M45.817 106.582a20.718 20.718 0 0 1-22.237-8.243 19.174 19.174 0 0 1-3.277-14.503 18.189 18.189 0 0 1 .624-2.435l.49-1.498 1.337.981a33.644 33.644 0 0 0 10.203 5.098l.97.294-.09.968a5.847 5.847 0 0 0 1.052 3.878 6.239 6.239 0 0 0 6.695 2.485 5.745 5.745 0 0 0 1.603-.704L69.27 76.28a5.43 5.43 0 0 0 2.45-3.631 5.795 5.795 0 0 0-.987-4.371 6.244 6.244 0 0 0-6.698-2.487 5.743 5.743 0 0 0-1.6.704l-9.953 6.345a19.033 19.033 0 0 1-5.296 2.326 20.718 20.718 0 0 1-22.237-8.243 19.172 19.172 0 0 1-3.277-14.502 17.988 17.988 0 0 1 8.13-12.052l26.081-16.623a19.004 19.004 0 0 1 5.3-2.329 20.718 20.718 0 0 1 22.237 8.243 19.174 19.174 0 0 1 3.277 14.503 18.4 18.4 0 0 1-.624 2.435l-.49 1.498-1.337-.98a33.617 33.617 0 0 0-10.203-5.1l-.97-.294.09-.968a5.859 5.859 0 0 0-1.052-3.878 6.239 6.239 0 0 0-6.696-2.485 5.745 5.745 0 0 0-1.602.704L37.73 51.72a5.422 5.422 0 0 0-2.449 3.63 5.786 5.786 0 0 0 .986 4.372 6.244 6.244 0 0 0 6.698 2.486 5.765 5.765 0 0 0 1.602-.704l9.952-6.342a18.978 18.978 0 0 1 5.295-2.328 20.718 20.718 0 0 1 22.237 8.242 19.172 19.172 0 0 1 3.277 14.503 17.998 17.998 0 0 1-8.13 12.053l-26.081 16.622a19.004 19.004 0 0 1-5.3 2.328" style="fill:#fff"/></svg>